<svg width="11" height="13" viewBox="0 0 11 13" fill="none" xmlns="http://www.w3.org/2000/svg">
<path d="M1.21399 2.25879C0.58274 2.25879 0.0710449 2.77311 0.0710449 3.40173V11.4023C0.0710449 12.0309 0.58274 12.5453 1.21399 12.5453H4.64281H5.78575H9.21458C9.84605 12.5453 10.3575 12.0309 10.3575 11.4023V3.40173C10.3575 2.77311 9.84605 2.25879 9.21458 2.25879H5.78575H4.64281H1.21399Z" fill="#ADB5BD"/>
<path d="M1.21399 1.68799C0.58274 1.68799 0.0710449 2.19968 0.0710449 2.83093V10.8315C0.0710449 11.463 0.58274 11.9745 1.21399 11.9745H4.64281H5.78575H9.21458C9.84605 11.9745 10.3575 11.463 10.3575 10.8315V2.83093C10.3575 2.19968 9.84605 1.68799 9.21458 1.68799H5.78575H4.64281H1.21399Z" fill="#F1F3F5"/>
<path d="M1.21399 1.68799C0.58274 1.68799 0.0710449 2.19968 0.0710449 2.83093V4.54534V5.11681H10.3575V4.54534V2.83093C10.3575 2.19968 9.84605 1.68799 9.21458 1.68799H5.78575H4.64281H1.21399Z" fill="#343A40"/>
<path d="M2.64239 3.116C2.64239 3.22857 2.62022 3.34003 2.57714 3.44403C2.53406 3.54803 2.47092 3.64253 2.39132 3.72213C2.31172 3.80173 2.21722 3.86487 2.11322 3.90795C2.00922 3.95103 1.89775 3.9732 1.78518 3.9732C1.67261 3.9732 1.56115 3.95103 1.45715 3.90795C1.35315 3.86487 1.25865 3.80173 1.17905 3.72213C1.09945 3.64253 1.03631 3.54803 0.993229 3.44403C0.950151 3.34003 0.927979 3.22857 0.927979 3.116C0.927979 3.00343 0.950151 2.89196 0.993229 2.78796C1.03631 2.68396 1.09945 2.58946 1.17905 2.50986C1.25865 2.43026 1.35315 2.36712 1.45715 2.32404C1.56115 2.28096 1.67261 2.25879 1.78518 2.25879C1.89775 2.25879 2.00922 2.28096 2.11322 2.32404C2.21722 2.36712 2.31172 2.43026 2.39132 2.50986C2.47092 2.58946 2.53406 2.68396 2.57714 2.78796C2.62022 2.89196 2.64239 3.00343 2.64239 3.116Z" fill="#212529"/>
<path d="M1.78461 0.544922C1.46898 0.544922 1.21313 0.800769 1.21313 1.11639V2.8308C1.21313 3.14643 1.46898 3.40228 1.78461 3.40228C2.10023 3.40228 2.35608 3.14643 2.35608 2.8308V1.11639C2.35608 0.800769 2.10023 0.544922 1.78461 0.544922Z" fill="#ADB5BD"/>
<path d="M9.5003 3.116C9.5003 3.22857 9.47813 3.34003 9.43505 3.44403C9.39197 3.54803 9.32883 3.64253 9.24923 3.72213C9.16963 3.80173 9.07513 3.86487 8.97113 3.90795C8.86713 3.95103 8.75566 3.9732 8.64309 3.9732C8.53052 3.9732 8.41906 3.95103 8.31506 3.90795C8.21106 3.86487 8.11656 3.80173 8.03696 3.72213C7.95736 3.64253 7.89422 3.54803 7.85114 3.44403C7.80806 3.34003 7.78589 3.22857 7.78589 3.116C7.78589 3.00343 7.80806 2.89196 7.85114 2.78796C7.89422 2.68396 7.95736 2.58946 8.03696 2.50986C8.11656 2.43026 8.21106 2.36712 8.31506 2.32404C8.41906 2.28096 8.53052 2.25879 8.64309 2.25879C8.75566 2.25879 8.86713 2.28096 8.97113 2.32404C9.07513 2.36712 9.16963 2.43026 9.24923 2.50986C9.32883 2.58946 9.39197 2.68396 9.43505 2.78796C9.47813 2.89196 9.5003 3.00343 9.5003 3.116Z" fill="#212529"/>
<path d="M8.64276 0.544922C8.32731 0.544922 8.07129 0.77351 8.07129 1.11639V2.8308C8.07129 3.11654 8.32731 3.40228 8.64276 3.40228C8.95821 3.40228 9.21423 3.11654 9.21423 2.8308V1.11639C9.21423 0.77351 8.95821 0.544922 8.64276 0.544922Z" fill="#ADB5BD"/>
<path d="M1.21558 6.26123V7.40417H2.35852V6.26123H1.21558ZM2.92999 6.26123V7.40417H4.07293V6.26123H2.92999ZM4.6444 6.26123V7.40417H5.78734V6.26123H4.6444ZM6.35881 6.26123V7.40417H7.50175V6.26123H6.35881ZM8.07323 6.26123V7.40417H9.21617V6.26123H8.07323Z" fill="#ADB5BD"/>
<path d="M1.21558 7.97314V9.11609H2.35852V7.97314H1.21558ZM2.92999 7.97314V9.11609H4.07293V7.97314H2.92999ZM4.6444 7.97314V9.11609H5.78734V7.97314H4.6444ZM6.35881 7.97314V9.11609H7.50175V7.97314H6.35881ZM8.07323 7.97314V9.11609H9.21617V7.97314H8.07323Z" fill="#ADB5BD"/>
<path d="M1.21558 9.68848V10.8314H2.35852V9.68848H1.21558ZM2.92999 9.68848V10.8314H4.07293V9.68848H2.92999ZM4.6444 9.68848V10.8314H5.78734V9.68848H4.6444ZM6.35881 9.68848V10.8314H7.50175V9.68848H6.35881ZM8.07323 9.68848V10.8314H9.21617V9.68848H8.07323Z" fill="#ADB5BD"/>
</svg>
